<svg width="30" height="31" viewBox="0 0 30 31" fill="none" xmlns="http://www.w3.org/2000/svg">
<g clip-path="url(#clip0_81_1941)">
<path d="M14.9661 29.077C7.09795 29.077 0.696777 22.6527 0.696777 14.7559C0.696777 6.85964 7.09795 0.435303 14.9661 0.435303C22.8349 0.435303 29.2354 6.85964 29.2354 14.7559C29.2354 22.6527 22.8349 29.077 14.9661 29.077ZM14.9661 1.20631C7.52166 1.20631 1.46472 7.28448 1.46472 14.7559C1.46472 22.2279 7.52166 28.306 14.9661 28.306C22.4106 28.306 28.4675 22.2279 28.4675 14.7559C28.4675 7.28448 22.4106 1.20631 14.9661 1.20631Z" fill="#344154"/>
<path d="M16.0143 19.573L12.1683 25.0874L14.4993 24.2414L13.6513 27.3137L17.5693 21.4421L15.3652 22.207L16.0143 19.573Z" fill="black"/>
<path d="M27.1932 21.3542C24.0791 19.7002 20.6589 18.6996 17.1431 18.414L16.776 18.3833L16.7951 17.9376C16.7958 17.4519 16.6035 16.9857 16.2604 16.6413C15.9173 16.2969 15.4514 16.1024 14.9648 16.1005C14.4783 16.1024 14.0124 16.2969 13.6693 16.6413C13.3262 16.9857 13.1339 17.4519 13.1345 17.9376L13.153 18.3839L12.7859 18.4147C9.27063 18.7 5.8509 19.7001 2.73705 21.3535L2.3786 20.6724C5.48117 19.0243 8.88 18.006 12.3789 17.6763C12.51 16.3605 13.6198 15.3295 14.9648 15.3295C16.3098 15.3295 17.4196 16.3605 17.5508 17.6763C21.0501 18.0059 24.4493 19.0242 27.5523 20.6724L27.1932 21.3542Z" fill="black"/>
<path d="M4.90793 11.4751L4.17694 11.2366C5.69933 6.53317 10.0355 3.37292 14.9667 3.37292C19.8898 3.37292 24.2236 6.52577 25.7503 11.2181L25.0205 11.4579C23.5967 7.08281 19.5566 4.14334 14.9667 4.14334C10.3693 4.14334 6.32624 7.08955 4.90793 11.4751Z" fill="black"/>
<path d="M14.9636 6.00012C14.9131 5.99996 14.8631 5.98986 14.8164 5.9704C14.7698 5.95094 14.7275 5.92251 14.6918 5.88672C14.6562 5.85092 14.628 5.80844 14.6088 5.76175C14.5896 5.71507 14.5798 5.66504 14.58 5.61458V3.75786C14.58 3.54513 14.7512 3.37231 14.9636 3.37231C15.1761 3.37231 15.3479 3.54451 15.3479 3.75786V5.61458C15.3481 5.66509 15.3383 5.71518 15.319 5.7619C15.2998 5.80863 15.2715 5.85106 15.2358 5.88687C15.2002 5.92267 15.1578 5.95113 15.1111 5.97055C15.0643 5.98997 15.0142 6.00004 14.9636 6.00012Z" fill="black"/>
<path d="M12.1528 6.44841C12.0716 6.44828 11.9924 6.42239 11.9268 6.37456C11.8612 6.32673 11.8125 6.25942 11.7876 6.1822L11.2155 4.41637C11.1998 4.36849 11.1938 4.31798 11.1977 4.26777C11.2016 4.21756 11.2153 4.16865 11.2382 4.12374C11.261 4.07884 11.2925 4.03889 11.3308 4.00614C11.3691 3.97338 11.4136 3.94843 11.4615 3.93281C11.5095 3.91719 11.56 3.91113 11.6103 3.91502C11.6606 3.91891 11.7097 3.93267 11.7546 3.95548C11.7996 3.97828 11.8397 4.00968 11.8725 4.04794C11.9053 4.0862 11.9302 4.13058 11.9459 4.17846L12.5186 5.94361C12.5373 6.00136 12.5421 6.06267 12.5326 6.12261C12.5231 6.18255 12.4996 6.23946 12.4639 6.28863C12.4283 6.33779 12.3815 6.37787 12.3275 6.40563C12.2734 6.43339 12.2136 6.44806 12.1528 6.44841Z" fill="black"/>
<path d="M9.61182 7.7443C9.5511 7.74436 9.49126 7.73008 9.43718 7.7025C9.38311 7.67492 9.33634 7.63487 9.30081 7.58571L8.21385 6.08309C8.15402 6.00043 8.1293 5.89752 8.1451 5.79677C8.16091 5.69601 8.21593 5.60557 8.2982 5.54512C8.33896 5.5154 8.38522 5.49397 8.43427 5.48215C8.48333 5.47033 8.53422 5.46834 8.58407 5.47622C8.63391 5.4841 8.68173 5.5017 8.72472 5.52808C8.76772 5.55446 8.80507 5.58909 8.83463 5.62993L9.92223 7.13195C9.9636 7.18944 9.98839 7.25718 9.99387 7.32776C9.99935 7.39834 9.98529 7.46904 9.95327 7.5322C9.92126 7.59537 9.87249 7.64859 9.81228 7.68598C9.75207 7.72338 9.68273 7.74353 9.61182 7.7443Z" fill="black"/>
<path d="M7.60224 9.77084C7.52114 9.77094 7.44216 9.74508 7.37686 9.69707L5.88034 8.60573C5.79797 8.54537 5.74282 8.45499 5.7269 8.35423C5.71098 8.25347 5.73558 8.15049 5.79535 8.06776C5.82471 8.02669 5.86193 7.9919 5.90488 7.96531C5.94783 7.93872 5.99564 7.92085 6.04554 7.91285C6.09544 7.90484 6.14642 7.90681 6.19556 7.91863C6.24469 7.93044 6.29097 7.95193 6.33174 7.98175L7.82826 9.07368C7.89334 9.12191 7.94163 9.18927 7.96633 9.26634C7.99102 9.34341 7.99087 9.42622 7.96591 9.50321C7.94096 9.58019 7.89245 9.64748 7.82721 9.69549C7.76197 9.7435 7.68328 9.76982 7.60224 9.77084Z" fill="black"/>
<path d="M6.30779 12.3144C6.26741 12.3144 6.2273 12.308 6.18893 12.2954L4.42944 11.7217C4.33746 11.686 4.26261 11.6165 4.22026 11.5275C4.17791 11.4385 4.17127 11.3367 4.20165 11.243C4.23204 11.1492 4.29715 11.0706 4.3837 11.0232C4.47024 10.9759 4.57165 10.9633 4.66715 10.9882L6.42665 11.5619C6.5136 11.5907 6.5875 11.6494 6.63515 11.7275C6.6828 11.8057 6.70111 11.8981 6.68683 11.9884C6.67256 12.0788 6.62665 12.1612 6.55723 12.2208C6.48781 12.2805 6.39941 12.3137 6.30779 12.3144Z" fill="black"/>
<path d="M17.7799 6.44825C17.7192 6.44778 17.6595 6.43302 17.6056 6.40525C17.5517 6.37748 17.5051 6.33747 17.4695 6.28839C17.434 6.23932 17.4105 6.18257 17.401 6.12275C17.3915 6.06294 17.3961 6.00172 17.4147 5.94405L17.9856 4.1777C17.9996 4.12773 18.0235 4.08105 18.056 4.04058C18.0885 4.0001 18.1289 3.96666 18.1747 3.94218C18.2205 3.91771 18.2709 3.90275 18.3226 3.8982C18.3744 3.89366 18.4265 3.89965 18.4759 3.91577C18.5253 3.93188 18.5709 3.95775 18.61 3.99194C18.6491 4.02613 18.6808 4.06789 18.7033 4.11465C18.7258 4.16142 18.7386 4.21226 18.7409 4.26408C18.7432 4.31591 18.7349 4.36766 18.7166 4.41621L18.1445 6.18204C18.1196 6.25916 18.071 6.32643 18.0055 6.37425C17.94 6.42207 17.861 6.44799 17.7799 6.44825Z" fill="black"/>
<path d="M20.3148 7.74432C20.2438 7.74355 20.1745 7.7234 20.1143 7.686C20.0541 7.6486 20.0053 7.59539 19.9733 7.53222C19.9413 7.46905 19.9273 7.39836 19.9327 7.32778C19.9382 7.2572 19.963 7.18946 20.0043 7.13197L21.0913 5.62995C21.1208 5.58904 21.1582 5.55438 21.2012 5.52795C21.2442 5.50152 21.292 5.48383 21.3418 5.47594C21.3917 5.46805 21.4427 5.47015 21.4917 5.48202C21.5408 5.49388 21.587 5.51534 21.6278 5.54514C21.7996 5.67056 21.8372 5.91156 21.7128 6.08371L20.6258 7.58573C20.5902 7.63497 20.5433 7.675 20.4891 7.70259C20.4349 7.73017 20.375 7.74448 20.3142 7.74432" fill="black"/>
<path d="M22.3287 9.77021C22.2476 9.76919 22.1689 9.74279 22.1037 9.69479C22.0385 9.64678 21.9899 9.57956 21.965 9.50258C21.94 9.42559 21.9399 9.34278 21.9646 9.26571C21.9893 9.18865 22.0376 9.12121 22.1026 9.07298L23.5992 7.98172C23.64 7.95197 23.6864 7.93053 23.7355 7.91875C23.7847 7.90697 23.8357 7.90504 23.8856 7.91304C23.9356 7.92105 23.9834 7.93888 24.0264 7.96543C24.0694 7.99198 24.1067 8.02671 24.1362 8.06773C24.1958 8.15052 24.2203 8.25349 24.2044 8.3542C24.1885 8.45491 24.1334 8.54525 24.0512 8.6057L22.5547 9.69644C22.4894 9.74445 22.4104 9.77031 22.3293 9.77021" fill="black"/>
<path d="M23.6256 12.3137C23.5343 12.3124 23.4465 12.2791 23.3775 12.2194C23.3086 12.1597 23.263 12.0775 23.2489 11.9875C23.2347 11.8975 23.2529 11.8055 23.3002 11.7276C23.3475 11.6496 23.4209 11.591 23.5074 11.5618L25.2669 10.9881C25.3622 10.9638 25.4633 10.9768 25.5495 11.0242C25.6356 11.0717 25.7004 11.1502 25.7306 11.2437C25.7609 11.3372 25.7543 11.4387 25.7121 11.5275C25.67 11.6163 25.5956 11.6857 25.504 11.7216L23.7445 12.2946C23.7061 12.3072 23.666 12.3137 23.6256 12.3137Z" fill="black"/>
<path d="M14.9648 18.7C14.7637 18.6993 14.571 18.619 14.429 18.4766C14.2871 18.3342 14.2076 18.1415 14.2079 17.9406C14.2079 17.5226 14.5479 17.1819 14.9648 17.1819C15.3818 17.1819 15.7211 17.522 15.7211 17.9406C15.7211 18.36 15.3824 18.7 14.9648 18.7Z" fill="black"/>
<path d="M14.9636 14.1336C14.9131 14.1335 14.8631 14.1234 14.8164 14.1039C14.7698 14.0845 14.7275 14.056 14.6918 14.0202C14.6562 13.9844 14.628 13.942 14.6088 13.8953C14.5896 13.8486 14.5798 13.7986 14.58 13.7481V8.23498C14.58 8.02225 14.7512 7.85004 14.9636 7.85004C15.1761 7.85004 15.3479 8.02225 15.3479 8.23498V13.7481C15.3481 13.7986 15.3383 13.8487 15.319 13.8954C15.2998 13.9421 15.2715 13.9846 15.2358 14.0204C15.2002 14.0562 15.1578 14.0846 15.1111 14.1041C15.0643 14.1235 15.0142 14.1336 14.9636 14.1336Z" fill="black"/>
<path d="M4.73488 16.9336V15.8871H5.82495V15.434H4.73488V14.5056H6.0085V14.0494H4.17755V17.3848H6.01959V16.9336H4.73488Z" fill="black"/>
<path d="M26.1863 14.505V14.0494H24.3104V17.3848H24.8684V15.9517H25.9917V15.498H24.8684V14.505H26.1863Z" fill="black"/>
</g>
<defs>
<clipPath id="clip0_81_1941">
<rect x="0.527405" width="28.9451" height="30.1266" rx="8" fill="white"/>
</clipPath>
</defs>
</svg>
