<svg width="31" height="31" viewBox="0 0 31 31" fill="none" xmlns="http://www.w3.org/2000/svg">
<path d="M19.0066 12.3351H9.3058C9.08487 12.3351 8.90411 12.1544 8.90411 11.9335V6.54414C8.90411 6.32322 9.08487 6.14246 9.3058 6.14246H18.9999C19.2208 6.14246 19.4016 6.32322 19.4016 6.54414V11.9335C19.4082 12.1544 19.2275 12.3351 19.0066 12.3351ZM10.1092 11.5318H18.1965C18.4174 11.5318 18.5982 11.351 18.5982 11.1301V7.34752C18.5982 7.12659 18.4174 6.94583 18.1965 6.94583H10.1092C9.88825 6.94583 9.70749 7.12659 9.70749 7.34752V11.1301C9.70749 11.351 9.88825 11.5318 10.1092 11.5318Z" fill="black"/>
<path d="M28.9885 6.7918H27.8236C27.7432 6.7918 27.6696 6.77172 27.6026 6.73155L25.2996 5.3725C24.9582 5.17166 24.523 5.28547 24.3222 5.6269C24.1214 5.96834 24.503 6.26961 24.8444 6.47045L27.0537 7.78263C27.1809 7.86297 27.2612 7.99686 27.2679 8.15084L27.221 12.4288C27.221 12.6564 27.4018 12.8372 27.6294 12.8372C27.8637 12.8372 28.0579 13.0313 28.0579 13.2657V20.4291C28.0579 20.6634 28.0043 20.9111 27.596 20.9178C27.1876 20.9245 25.38 20.9178 25.0318 20.9111C24.7975 20.9044 24.744 20.65 24.744 20.4827L24.7306 10.4003C24.7306 10.099 24.5364 9.90488 24.3021 9.90488L22.7221 9.89818C22.4878 9.89818 22.2937 9.70404 22.2937 9.46972V4.30803C22.2937 3.40423 21.5639 2.6745 20.6601 2.6745H7.16344C6.50065 2.6745 5.95837 3.21008 5.95837 3.87287V23.743C5.95837 23.9773 5.76423 24.1715 5.52991 24.1715H4.45874C4.22442 24.1715 4.03027 24.3656 4.03027 24.6V27.0837C4.03027 27.318 4.22442 27.5122 4.45874 27.5122H23.8067C24.041 27.5122 24.2352 27.318 24.2352 27.0837V24.6C24.2352 24.3656 24.041 24.1715 23.8067 24.1715H22.7221C22.4878 24.1715 22.2937 23.9773 22.2937 23.743V11.7861C22.2937 11.5518 22.4878 11.3577 22.7221 11.3577H23.2778C23.5121 11.3577 23.7063 11.5518 23.7063 11.7861L23.713 21.5739C23.713 21.8082 23.9071 22.0024 24.1414 22.0024L26.4177 21.9957C27.8637 21.9957 29.0353 22.163 29.042 20.717V13.1184C29.042 12.9711 29.1157 12.8305 29.2429 12.7569C29.3634 12.6832 29.4437 12.556 29.4504 12.4087V7.26043C29.4571 6.99934 29.2429 6.7918 28.9885 6.7918ZM23.01 24.928C23.2176 24.928 23.3916 25.0954 23.3916 25.3096V26.2268C23.3916 26.4343 23.2243 26.6084 23.01 26.6084H5.23534C5.0278 26.6084 4.85373 26.441 4.85373 26.2268V25.3096C4.85373 25.1021 5.0211 24.928 5.23534 24.928H6.58099C6.78853 24.928 6.96259 24.7606 6.96259 24.5464V4.64277C6.96259 4.06032 7.43793 3.58499 8.02037 3.58499H19.9103C20.7003 3.58499 21.3497 4.22769 21.3497 5.02437V24.5531C21.3497 24.7606 21.5171 24.9347 21.7313 24.9347H23.01V24.928Z" fill="black"/>
</svg>
