<svg width="30" height="31" viewBox="0 0 30 31" fill="none" xmlns="http://www.w3.org/2000/svg">
<g clip-path="url(#clip0_81_1980)">
<path d="M21.8806 11.8348C21.6608 11.8348 21.4815 12.0177 21.4815 12.2419V15.0918H15.5943V12.2419C15.5943 12.0177 15.415 11.8348 15.1952 11.8348C14.9753 11.8348 14.796 12.0177 14.796 12.2419V15.0918H8.91199V12.2419C8.91199 12.0177 8.73263 11.8348 8.51281 11.8348C8.29299 11.8348 8.11371 12.0177 8.11371 12.2419V18.7558C8.11371 18.98 8.29299 19.1629 8.51281 19.1629C8.73263 19.1629 8.91199 18.98 8.91199 18.7558V15.906H14.7992V18.7558C14.7992 18.98 14.9785 19.1629 15.1983 19.1629C15.4181 19.1629 15.5974 18.98 15.5974 18.7558V15.906H21.8838C22.1037 15.906 22.283 15.7231 22.283 15.4989V12.2419C22.2798 12.0177 22.1005 11.8348 21.8807 11.8348H21.8806Z" fill="black"/>
<path d="M8.51272 10.7886C9.72568 10.7886 10.7157 9.78347 10.7157 8.5415C10.7157 7.29952 9.73034 6.29443 8.51272 6.29443C7.29507 6.29443 6.30969 7.29952 6.30969 8.5415C6.30969 9.78347 7.29974 10.7886 8.51272 10.7886ZM8.51272 7.11184C9.28759 7.11184 9.91745 7.75429 9.91745 8.54466C9.91745 9.33503 9.28759 9.97756 8.51272 9.97756C7.73785 9.97756 7.10796 9.33503 7.10796 8.54466C7.10796 7.75587 7.7394 7.11184 8.51272 7.11184Z" fill="black"/>
<path d="M8.51272 20.2125C7.2997 20.2125 6.30969 21.2176 6.30969 22.4595C6.30969 23.7015 7.29507 24.7066 8.51272 24.7066C9.73034 24.7066 10.7157 23.7015 10.7157 22.4595C10.7173 21.2191 9.72724 20.2125 8.51272 20.2125ZM8.51272 23.8892C7.73785 23.8892 7.10796 23.2467 7.10796 22.4564C7.10796 21.666 7.73785 21.0235 8.51272 21.0235C9.28759 21.0235 9.91745 21.666 9.91745 22.4564C9.919 23.2467 9.28759 23.8892 8.51272 23.8892Z" fill="black"/>
<path d="M15.1951 10.7886C16.408 10.7886 17.3981 9.78347 17.3981 8.5415C17.3981 7.29952 16.4127 6.29443 15.1951 6.29443C13.9774 6.29443 12.9921 7.29952 12.9921 8.5415C12.9921 9.78347 13.9821 10.7886 15.1951 10.7886ZM15.1951 7.11184C15.9699 7.11184 16.5998 7.75429 16.5998 8.54466C16.5998 9.33503 15.9699 9.97756 15.1951 9.97756C14.4202 9.97756 13.7903 9.33503 13.7903 8.54466C13.7903 7.75587 14.4249 7.11184 15.1951 7.11184Z" fill="black"/>
<path d="M15.1951 20.2125C13.982 20.2125 12.9921 21.2176 12.9921 22.4595C12.9921 23.7015 13.9775 24.7066 15.1951 24.7066C16.4128 24.7066 17.3981 23.7015 17.3981 22.4595C17.3981 21.2191 16.4127 20.2125 15.1951 20.2125ZM15.1951 23.8892C14.4202 23.8892 13.7903 23.2467 13.7903 22.4564C13.7903 21.666 14.4202 21.0235 15.1951 21.0235C15.9699 21.0235 16.5998 21.666 16.5998 22.4564C16.5998 23.2467 15.9699 23.8892 15.1951 23.8892Z" fill="black"/>
<path d="M21.8803 6.29767C20.6672 6.29767 19.6772 7.30276 19.6772 8.54476C19.6772 9.78673 20.6626 10.7918 21.8803 10.7918C23.0979 10.7918 24.0833 9.78673 24.0833 8.54476C24.0833 7.3043 23.0932 6.29767 21.8803 6.29767ZM21.8803 9.97441C21.1054 9.97441 20.4755 9.33197 20.4755 8.54159C20.4755 7.75122 21.1054 7.10873 21.8803 7.10873C22.6551 7.10873 23.285 7.75122 23.285 8.54159C23.285 9.33197 22.6551 9.97441 21.8803 9.97441Z" fill="black"/>
<path d="M14.7679 0C6.62641 0 0 6.75894 0 15.0633C0 23.3676 6.62641 30.1266 14.7679 30.1266C22.9094 30.1266 29.5359 23.3676 29.5359 15.0633C29.5359 6.75894 22.9094 0 14.7679 0ZM14.7679 29.3123C7.06426 29.3123 0.798266 22.9211 0.798266 15.0633C0.798266 7.20555 7.06426 0.814231 14.7679 0.814231C22.4716 0.814231 28.7376 7.20555 28.7376 15.0633C28.7376 22.9211 22.4716 29.3123 14.7679 29.3123Z" fill="black"/>
</g>
<defs>
<clipPath id="clip0_81_1980">
<rect width="29.5359" height="30.1266" rx="8" fill="white"/>
</clipPath>
</defs>
</svg>
